<svg width="500" height="480" viewBox="0 0 500 480" fill="none" xmlns="http://www.w3.org/2000/svg">
<style>
  .floating {
    animation: float 3s ease-in-out infinite;
  }
  .floating-delay-1 {
    animation-delay: 0.5s;
  }
  .floating-delay-2 {
    animation-delay: 1s;
  }
  .rotating {
    transform-origin: center;
    animation: rotate 10s linear infinite;
  }
  .pulse {
    animation: pulse 2s ease-in-out infinite;
  }
  .dash-line {
    stroke-dasharray: 5;
    animation: dash 20s linear infinite;
  }
  @keyframes float {
    0%, 100% { transform: translateY(0); }
    50% { transform: translateY(-10px); }
  }
  @keyframes rotate {
    from { transform: rotate(0deg); }
    to { transform: rotate(360deg); }
  }
  @keyframes pulse {
    0%, 100% { transform: scale(1); }
    50% { transform: scale(1.1); }
  }
  @keyframes dash {
    to { stroke-dashoffset: 1000; }
  }
</style>

<rect x="330" y="310" width="170" height="170" rx="2" fill="#1D2430" class="floating"/>
<rect x="362" y="365.831" width="80.7651" height="80.7651" rx="2" transform="rotate(-13.9128 362 365.831)" fill="#FFCD00"/>
<path d="M412.572 402.039C411.235 402.37 409.822 402.156 408.643 401.445C407.464 400.734 406.615 399.584 406.284 398.247C405.818 396.366 406.435 394.466 407.718 393.239L421.691 379.757L416.388 398.152C415.956 400.006 414.538 401.552 412.572 402.039ZM407.162 380.2C410.203 379.447 413.25 379.583 416.061 380.349L413.037 383.256C411.434 383.047 409.675 383.144 407.995 383.56C404.43 384.443 401.363 386.705 399.467 389.85C397.571 392.995 397.002 396.764 397.884 400.328C398.804 404.041 401.131 407.03 404.167 408.846L404.183 408.842C405.001 409.334 405.263 410.393 404.77 411.21C404.277 412.028 403.202 412.294 402.389 411.818C398.595 409.531 395.673 405.797 394.525 401.16C393.421 396.705 394.132 391.994 396.502 388.063C398.873 384.132 402.707 381.304 407.162 380.2ZM428.123 392.838C429.271 397.474 428.43 402.14 426.143 405.934C425.646 406.735 424.587 406.997 423.77 406.504C422.952 406.011 422.69 404.953 423.183 404.135C425.016 401.096 425.683 397.382 424.763 393.67C424.347 391.99 423.612 390.389 422.649 389.023L423.808 384.992C425.826 387.166 427.365 389.78 428.123 392.838Z" fill="white"/>

<rect width="300" height="480" rx="2" fill="#1D2430"/>
<rect x="35" y="35" width="230" height="134" rx="2" fill="white" fill-opacity="0.17" class="floating"/>
<rect opacity="0.1" x="35" y="194" width="230" height="27" rx="2" fill="white" class="floating floating-delay-1"/>
<rect opacity="0.1" x="35" y="246" width="137" height="199" rx="2" fill="white" class="floating floating-delay-2"/>
<rect opacity="0.08" x="187" y="246" width="78" height="64" rx="2" fill="white" class="floating"/>
<rect opacity="0.2" x="187" y="322" width="78" height="55" rx="2" fill="white" class="floating floating-delay-1"/>
<rect opacity="0.2" x="187" y="389" width="78" height="56" rx="2" fill="white" fill-opacity="0.65" class="floating floating-delay-2"/>

<path d="M377.795 371.295C358.482 349.772 331.574 292.451 378.448 235.357" stroke="url(#paint0_linear_50_445)" stroke-linecap="round" stroke-linejoin="round" stroke-dasharray="2 2" class="dash-line"/>
<path d="M375.753 233.513L380.883 233V237.617" stroke="url(#paint1_linear_50_445)" stroke-linecap="round" stroke-linejoin="round" stroke-dasharray="2 2" class="dash-line"/>

<rect x="330" width="170" height="280" rx="2" fill="#1D2430" class="floating"/>
<rect x="384" y="213" width="69" height="19.5283" rx="9.76415" fill="#36A269"/>

<!-- Success button text -->
<g>
  <path d="M399.37 219.509V223.177C399.37 223.948 398.838 224.502 397.972 224.502C397.109 224.502 396.574 223.948 396.574 223.177V219.509H395.717V223.246C395.717 224.439 396.61 225.285 397.972 225.285C399.334 225.285 400.23 224.439 400.23 223.246V219.509H399.37Z" fill="white"/>
  <!-- ... rest of the success button text paths ... -->
</g>

<path d="M429.313 209C445.373 191.102 467.749 143.437 428.77 95.9595" stroke="url(#paint2_linear_50_445)" stroke-linecap="round" stroke-linejoin="round" stroke-dasharray="2 2" class="dash-line"/>
<path d="M431.011 94.4266L426.746 94V97.8392" stroke="url(#paint3_linear_50_445)" stroke-linecap="round" stroke-linejoin="round" stroke-dasharray="2 2" class="dash-line"/>
<path d="M425.919 209.552C429.35 203.094 432.466 187.389 417.488 176.228" stroke="url(#paint4_linear_50_445)" stroke-width="0.7" stroke-linecap="round" stroke-linejoin="round" stroke-dasharray="2 2" class="dash-line"/>

<rect x="348" y="72" width="76" height="19" rx="1" fill="white" fill-opacity="0.15" class="floating"/>
<rect x="348.1" y="72.1" width="75.8" height="18.8" rx="0.9" stroke="white" stroke-opacity="0.19" stroke-width="0.2" class="floating"/>

<circle cx="359.5" cy="81.5" r="6.5" fill="#FFCD00"/>
<!-- Circle icon -->
<path d="M357.167 79.75H361.833V82.6666H357.167V79.75ZM361.833 83.25C361.988 83.25 362.136 83.1885 362.246 83.0791C362.355 82.9697 362.417 82.8213 362.417 82.6666V79.75C362.417 79.4262 362.154 79.1666 361.833 79.1666H357.167C356.843 79.1666 356.583 79.4262 356.583 79.75V82.6666C356.583 82.8213 356.645 82.9697 356.754 83.0791C356.864 83.1885 357.012 83.25 357.167 83.25H356V83.8333H363V83.25H361.833Z" fill="white"/>

<rect x="373" y="148.4" width="34" height="34" rx="1" transform="rotate(-12.5713 373 148.4)" fill="#FFCD00"/>
<circle cx="393.293" cy="161.293" r="10" transform="rotate(-12.5713 393.293 161.293)" fill="white"/>

<g clip-path="url(#clip0_50_445)">
<path d="M398.281 159.94L396.256 158.654C396.106 158.558 396.015 158.621 396.054 158.796L396.433 160.496L394.539 160.919C394.355 160.293 393.738 159.901 393.094 160L392.675 158.119L394.375 157.74C394.55 157.701 394.569 157.593 394.418 157.497L392.393 156.21C392.242 156.115 392.043 156.159 391.948 156.309L390.661 158.335C390.565 158.485 390.629 158.576 390.803 158.537L392.504 158.158L392.923 160.037C392.298 160.222 391.905 160.838 392.005 161.483L390.111 161.905L389.732 160.206C389.693 160.031 389.584 160.012 389.489 160.163L388.202 162.188C388.106 162.338 388.151 162.538 388.301 162.633L390.326 163.92C390.477 164.015 390.567 163.952 390.528 163.778L390.149 162.076L392.04 161.654C392.225 162.279 392.842 162.672 393.486 162.572L393.908 164.464L392.208 164.843C392.034 164.882 392.015 164.991 392.165 165.086L394.191 166.373C394.341 166.468 394.54 166.424 394.636 166.274L395.923 164.248C396.018 164.098 395.955 164.007 395.78 164.046L394.082 164.425L393.661 162.536C394.286 162.351 394.678 161.735 394.579 161.091L396.471 160.669L396.85 162.369C396.889 162.544 396.997 162.563 397.093 162.412L398.38 160.387C398.476 160.236 398.432 160.036 398.281 159.94Z" fill="#FFCD00"/>
</g>

<g opacity="0.08" class="floating">
<rect x="398" y="32" width="81" height="20" rx="1" fill="white"/>
<rect x="398.1" y="32.1" width="80.8" height="19.8" rx="0.9" stroke="white" stroke-opacity="0.19" stroke-width="0.2"/>
</g>

<rect x="462" y="35" width="14" height="14" rx="1" fill="#FFCD00"/>

<!-- Rest of the SVG elements -->
<defs>
<linearGradient id="paint0_linear_50_445" x1="374.3" y1="234.975" x2="361.897" y2="369.833" gradientUnits="userSpaceOnUse">
<stop stop-color="white" stop-opacity="0.48"/>
<stop offset="1" stop-color="white" stop-opacity="0"/>
</linearGradient>
<linearGradient id="paint1_linear_50_445" x1="378.318" y1="233" x2="378.318" y2="237.617" gradientUnits="userSpaceOnUse">
<stop stop-color="white" stop-opacity="0.55"/>
<stop offset="1" stop-color="white" stop-opacity="0.62"/>
</linearGradient>
<linearGradient id="paint2_linear_50_445" x1="432.22" y1="95.6423" x2="442.533" y2="207.784" gradientUnits="userSpaceOnUse">
<stop stop-color="white" stop-opacity="0.48"/>
<stop offset="1" stop-color="white" stop-opacity="0"/>
</linearGradient>
<linearGradient id="paint3_linear_50_445" x1="428.878" y1="94" x2="428.878" y2="97.8392" gradientUnits="userSpaceOnUse">
<stop stop-color="white" stop-opacity="0.55"/>
<stop offset="1" stop-color="white" stop-opacity="0.62"/>
</linearGradient>
<linearGradient id="paint4_linear_50_445" x1="418.483" y1="175.882" x2="429.732" y2="208.225" gradientUnits="userSpaceOnUse">
<stop stop-color="white" stop-opacity="0.48"/>
<stop offset="1" stop-color="white" stop-opacity="0"/>
</linearGradient>
<linearGradient id="paint5_linear_50_445" x1="396" y1="42" x2="359.25" y2="42" gradientUnits="userSpaceOnUse">
<stop stop-color="white" stop-opacity="0.28"/>
<stop offset="1" stop-color="white" stop-opacity="0"/>
</linearGradient>
<clipPath id="clip0_50_445">
<rect width="12" height="12" fill="white" transform="translate(386.13 156.742) rotate(-12.5713)"/>
</clipPath>
</defs>
</svg>
